<svg width="914" height="596" viewBox="0 0 914 596" fill="none" xmlns="http://www.w3.org/2000/svg">
<g id="undraw_Friends_online_re_r7pq 1" clip-path="url(#clip0)">
<g id="user">
<path id="Vector" d="M744.417 594.437H729.658C727.802 594.435 726.023 593.696 724.71 592.384C723.398 591.072 722.66 589.293 722.658 587.437V464.423C722.66 462.567 723.398 460.788 724.71 459.476C726.023 458.163 727.802 457.425 729.658 457.423H744.417C746.273 457.425 748.052 458.163 749.364 459.476C750.677 460.788 751.415 462.567 751.417 464.423V587.437C751.415 589.293 750.677 591.072 749.364 592.384C748.052 593.696 746.273 594.435 744.417 594.437V594.437Z" fill="#6C63FF"/>
<path id="Vector_2" d="M775.609 594.437H760.85C758.994 594.435 757.215 593.696 755.902 592.384C754.59 591.072 753.852 589.293 753.85 587.437V464.423C753.852 462.567 754.59 460.788 755.902 459.476C757.215 458.163 758.994 457.425 760.85 457.423H775.609C777.465 457.425 779.244 458.163 780.557 459.476C781.869 460.788 782.607 462.567 782.609 464.423V587.437C782.607 589.293 781.869 591.072 780.557 592.384C779.244 593.696 777.465 594.435 775.609 594.437V594.437Z" fill="#6C63FF"/>
<path id="Vector_3" d="M780.614 503.341H723.614C721.36 503.338 719.2 502.442 717.606 500.849C716.013 499.255 715.116 497.095 715.114 494.841V478.841C715.116 476.588 716.013 474.427 717.606 472.834C719.2 471.24 721.36 470.344 723.614 470.341H780.614C782.867 470.344 785.028 471.24 786.621 472.834C788.215 474.427 789.111 476.588 789.114 478.841V494.841C789.111 497.095 788.215 499.255 786.621 500.849C785.028 502.442 782.867 503.338 780.614 503.341V503.341Z" fill="#2F2E41"/>
<path id="Vector_4" d="M757.46 205.065C759.201 187.706 770.61 171.106 788.026 166.588C796.525 164.331 805.548 165.15 813.502 168.899C820.702 172.531 826.362 178.622 829.457 186.069C832.511 193.436 833.68 201.448 832.859 209.381C831.929 218.05 829.162 226.421 824.742 233.937C820.018 242.265 813.875 249.711 807.427 256.752C800.857 263.925 793.424 270.525 787.896 278.578C782.993 285.721 779.051 295.421 783.883 303.642C785.776 306.656 788.498 309.06 791.723 310.567C794.948 312.073 798.539 312.618 802.066 312.135C803.796 311.873 805.469 311.318 807.013 310.493C808.715 309.584 810.232 312.173 808.527 313.084C802.056 316.538 794.012 315.755 787.899 311.871C780.854 307.393 777.709 299.491 779.03 291.323C780.535 282.01 787.029 274.013 793.265 267.31C799.778 260.307 806.6 253.621 812.633 246.181C818.592 238.833 823.913 230.722 827.103 221.764C829.782 214.278 830.676 206.269 829.713 198.376C828.762 190.839 825.832 183.371 820.573 177.794C817.666 174.799 814.187 172.419 810.341 170.796C806.495 169.173 802.362 168.341 798.188 168.348C789.525 168.238 781.126 171.326 774.598 177.022C768.161 182.779 763.619 190.351 761.57 198.741C761.046 200.819 760.675 202.932 760.46 205.065C760.269 206.967 757.267 206.987 757.46 205.065H757.46Z" fill="#2F2E41"/>
<path id="Vector_5" d="M767.005 204.376L752.762 199.673C752.075 199.447 751.441 199.088 750.893 198.616C750.346 198.144 749.897 197.57 749.572 196.924C749.247 196.279 749.052 195.576 748.999 194.856C748.946 194.135 749.035 193.412 749.261 192.726C749.488 192.04 749.847 191.405 750.319 190.858C750.791 190.311 751.366 189.862 752.011 189.537C752.657 189.213 753.36 189.018 754.08 188.965C754.801 188.912 755.524 189.002 756.21 189.229L770.454 193.932C771.141 194.157 771.776 194.516 772.324 194.988C772.872 195.459 773.321 196.034 773.647 196.679C773.973 197.325 774.168 198.028 774.221 198.749C774.275 199.47 774.186 200.194 773.959 200.881C773.732 201.567 773.373 202.202 772.9 202.749C772.428 203.296 771.853 203.745 771.207 204.07C770.561 204.395 769.857 204.589 769.136 204.641C768.416 204.694 767.691 204.604 767.005 204.376H767.005Z" fill="#2F2E41"/>
<path id="Vector_6" d="M913.307 593.272H589.275V595.513H913.307V593.272Z" fill="#3F3D56"/>
<path id="Vector_7" d="M752.85 312.11C782.408 312.11 806.369 288.149 806.369 258.591C806.369 229.033 782.408 205.072 752.85 205.072C723.292 205.072 699.331 229.033 699.331 258.591C699.331 288.149 723.292 312.11 752.85 312.11Z" fill="#6C63FF"/>
<path id="Vector_8" d="M613.433 426.863C612.701 426.862 611.973 426.746 611.276 426.521C610.4 426.241 609.588 425.789 608.887 425.193C608.187 424.597 607.612 423.868 607.195 423.048L600.47 409.909C600.051 409.091 599.798 408.198 599.724 407.282C599.65 406.366 599.758 405.444 600.04 404.569C600.323 403.694 600.775 402.884 601.371 402.184C601.967 401.484 602.695 400.908 603.513 400.49L713.016 344.442C714.669 343.596 716.59 343.442 718.357 344.012C720.124 344.583 721.592 345.832 722.438 347.485L729.162 360.623C730.008 362.276 730.162 364.197 729.592 365.963C729.022 367.73 727.773 369.197 726.121 370.043L616.616 426.091C615.632 426.599 614.54 426.863 613.433 426.863V426.863Z" fill="#6C63FF"/>
<path id="Vector_9" d="M798.614 480.341H707.614C705.36 480.338 703.2 479.442 701.606 477.849C700.013 476.255 699.116 474.095 699.114 471.841V376.341C699.114 362.019 704.803 348.284 714.93 338.157C725.057 328.03 738.792 322.341 753.114 322.341C767.435 322.341 781.171 328.03 791.297 338.157C801.424 348.284 807.114 362.019 807.114 376.341V471.841C807.111 474.095 806.215 476.255 804.621 477.849C803.028 479.442 800.867 480.338 798.614 480.341V480.341Z" fill="#CCCCCC"/>
<path id="Vector_10" d="M763.777 469.962C763.707 469.962 763.638 469.961 763.568 469.959L748.814 469.533C746.959 469.478 745.201 468.689 743.927 467.339C742.653 465.989 741.967 464.188 742.02 462.332L745.581 339.369C745.606 338.45 745.812 337.545 746.189 336.706C746.565 335.867 747.104 335.111 747.774 334.482C747.91 334.353 748.051 334.231 748.195 334.116C749.492 333.072 751.119 332.526 752.783 332.576L767.535 333.002C769.39 333.059 771.147 333.849 772.421 335.198C773.695 336.548 774.381 338.348 774.33 340.203L770.768 463.166C770.713 464.985 769.953 466.711 768.648 467.98C767.343 469.248 765.596 469.959 763.777 469.962V469.962Z" fill="#6C63FF"/>
<path id="Vector_11" d="M749.507 329.887C750.71 328.915 752.222 328.407 753.768 328.457L768.521 328.884C770.243 328.936 771.875 329.669 773.058 330.923C774.24 332.176 774.878 333.847 774.83 335.57L778.269 392.533C778.217 394.255 777.484 395.887 776.23 397.07C774.977 398.252 773.306 398.889 771.583 398.841L771.583 398.841L743.829 398.414C742.976 398.389 742.136 398.197 741.357 397.847C740.578 397.498 739.876 396.999 739.29 396.378C738.704 395.757 738.246 395.027 737.943 394.229C737.639 393.431 737.496 392.582 737.521 391.728L743.614 335.841C743.664 334.106 747.855 331.419 749.118 330.226C749.244 330.107 749.374 329.995 749.507 329.887Z" fill="#CCCCCC"/>
<path id="Vector_12" d="M728.757 340.053C730.187 340.645 731.356 341.73 732.052 343.111L738.734 356.27C739.512 357.808 739.649 359.591 739.114 361.23C738.579 362.868 737.416 364.227 735.881 365.009L687.503 395.278C685.965 396.056 684.182 396.193 682.544 395.658C680.906 395.123 679.547 393.96 678.765 392.425L678.765 392.424L665.864 367.848C665.477 367.087 665.245 366.257 665.179 365.406C665.113 364.555 665.215 363.699 665.48 362.888C665.745 362.076 666.168 361.325 666.723 360.677C667.278 360.029 667.956 359.496 668.717 359.11L723.313 340.257C724.073 339.868 724.903 339.635 725.755 339.569C726.606 339.503 727.462 339.607 728.273 339.874C728.438 339.927 728.599 339.988 728.757 340.053Z" fill="#CCCCCC"/>
<path id="Vector_13" d="M734.97 271.668C731.664 271.575 727.549 271.46 724.38 269.145C723.436 268.427 722.66 267.512 722.108 266.463C721.555 265.415 721.238 264.258 721.18 263.074C721.122 262.232 721.26 261.388 721.583 260.608C721.905 259.829 722.404 259.134 723.04 258.579C724.696 257.18 727.113 256.853 729.719 257.618L727.019 237.892L729 237.62L732.174 260.811L730.519 260.052C728.601 259.171 725.967 258.724 724.331 260.107C723.929 260.468 723.616 260.918 723.416 261.42C723.216 261.922 723.135 262.463 723.179 263.002C723.227 263.884 723.465 264.744 723.875 265.525C724.286 266.307 724.861 266.99 725.56 267.53C728.026 269.331 731.306 269.565 735.025 269.668L734.97 271.668Z" fill="#2F2E41"/>
<path id="Vector_14" d="M717.22 239.594H706.448V241.594H717.22V239.594Z" fill="#2F2E41"/>
<path id="Vector_15" d="M751.22 239.594H740.448V241.594H751.22V239.594Z" fill="#2F2E41"/>
</g>
<g id="friend3">
<path id="Vector_16" d="M484.976 390.041C476.321 390.04 467.694 389.059 459.259 387.116C454.922 386.11 450.647 384.85 446.458 383.341H446.458L446.283 383.282C440.9 381.331 435.673 378.976 430.645 376.239C429.353 375.544 428.047 374.799 426.768 374.028C425.887 373.507 425.02 372.973 424.152 372.428C407.397 361.842 393.691 347.07 384.386 329.571C375.081 312.072 370.499 292.449 371.092 272.638C371.684 252.828 377.431 233.514 387.765 216.602C398.099 199.69 412.664 185.765 430.022 176.199C447.38 166.633 466.932 161.758 486.749 162.053C506.566 162.349 525.964 167.806 543.028 177.886C560.093 187.965 574.235 202.32 584.06 219.532C593.885 236.745 599.053 256.222 599.054 276.041V276.04C599.001 295.6 593.942 314.82 584.358 331.87C574.774 348.92 560.985 363.233 544.303 373.446C542.345 374.64 540.326 375.784 538.131 376.945C535.147 378.525 532.098 379.962 529.059 381.224L528.496 381.465C527.444 381.9 526.393 382.315 525.332 382.708C524.849 382.896 524.341 383.088 523.833 383.272C511.408 387.757 498.298 390.048 485.088 390.041H484.976ZM446.807 381.344L446.974 381.401C451.14 382.909 455.393 384.167 459.709 385.166C467.996 387.076 476.473 388.04 484.977 388.041C485.013 388.041 485.05 388.043 485.087 388.041C498.066 388.048 510.947 385.797 523.155 381.391C523.646 381.213 524.139 381.027 524.622 380.838C525.463 380.526 526.29 380.204 527.114 379.87V379.869L527.736 379.606C530.901 378.314 534.083 376.824 537.196 375.177C539.354 374.035 541.339 372.91 543.263 371.738C559.652 361.705 573.199 347.643 582.615 330.892C592.031 314.141 597.002 295.258 597.054 276.042V276.041C597.053 256.57 591.976 237.435 582.323 220.524C572.671 203.613 558.777 189.511 542.012 179.608C525.247 169.705 506.189 164.344 486.72 164.053C467.251 163.762 448.042 168.552 430.988 177.95C413.935 187.348 399.626 201.029 389.473 217.644C379.32 234.259 373.673 253.233 373.091 272.696C372.508 292.159 377.01 311.437 386.151 328.63C395.292 345.822 408.757 360.335 425.218 370.736C426.068 371.27 426.92 371.794 427.793 372.311C429.052 373.07 430.329 373.798 431.597 374.48C436.489 377.143 441.573 379.438 446.807 381.344L446.807 381.344Z" fill="#E6E6E6"/>
<path id="Vector_17" d="M572.275 225.876C581.023 225.876 588.114 218.785 588.114 210.038C588.114 201.291 581.023 194.199 572.275 194.199C563.528 194.199 556.437 201.291 556.437 210.038C556.437 218.785 563.528 225.876 572.275 225.876Z" fill="#CCCCCC"/>
<path id="Vector_18" d="M481.266 337.924C510.823 337.924 534.785 313.962 534.785 284.405C534.785 254.847 510.823 230.885 481.266 230.885C451.708 230.885 427.747 254.847 427.747 284.405C427.747 313.962 451.708 337.924 481.266 337.924Z" fill="#6C63FF"/>
<path id="Vector_19" d="M456.986 255.588C450.739 254.114 443.995 252.132 439.539 247.214C435.746 243.027 433.967 236.566 437.328 231.602C440.397 227.07 446.451 225.407 451.546 224.557C457.468 223.569 463.554 223.425 469.112 220.904C471.84 219.67 474.221 217.781 476.043 215.405C477.735 213.029 479.203 210.503 480.43 207.857C481.591 205.278 483.144 202.894 485.032 200.788C487.179 198.685 489.948 197.333 492.926 196.933C499.631 195.914 505.996 199.013 511.271 202.861C516.38 206.66 521.015 211.058 525.076 215.96C534.299 226.952 540.648 240.061 543.552 254.112C543.942 256.002 546.834 255.202 546.445 253.315C543.668 240.018 537.899 227.527 529.576 216.791C525.455 211.438 520.72 206.586 515.469 202.335C510.033 197.956 503.757 194.139 496.607 193.777C493.3 193.585 490 194.24 487.018 195.681C484.278 197.126 481.972 199.274 480.336 201.904C476.967 207.014 475.342 213.616 469.907 217.072C464.402 220.573 457.509 220.607 451.264 221.581C445.709 222.448 439.525 224.277 435.765 228.738C431.605 233.673 431.762 240.397 434.869 245.839C438.321 251.885 444.734 255.185 451.175 257.152C452.829 257.657 454.505 258.084 456.188 258.481C458.065 258.924 458.867 256.032 456.986 255.588V255.588Z" fill="#2F2E41"/>
<path id="Vector_20" d="M478.981 302.274L478.925 300.274C482.646 300.17 485.926 299.937 488.391 298.136C489.09 297.596 489.664 296.913 490.075 296.131C490.486 295.35 490.724 294.489 490.772 293.608C490.816 293.069 490.734 292.528 490.534 292.026C490.334 291.524 490.021 291.075 489.62 290.713C487.983 289.331 485.351 289.779 483.432 290.658L481.777 291.417L484.95 268.227L486.932 268.498L484.232 288.225C486.84 287.458 489.256 287.788 490.911 289.186C491.546 289.741 492.044 290.435 492.367 291.214C492.69 291.993 492.828 292.836 492.771 293.678C492.713 294.862 492.396 296.02 491.843 297.069C491.29 298.118 490.515 299.033 489.571 299.751C486.404 302.066 482.288 302.181 478.981 302.274Z" fill="#2F2E41"/>
<path id="Vector_21" d="M507.502 270.199H496.731V272.199H507.502V270.199Z" fill="#2F2E41"/>
<path id="Vector_22" d="M473.502 270.199H462.731V272.199H473.502V270.199Z" fill="#2F2E41"/>
</g>
<g id="friend2">
<path id="Vector_23" d="M278.976 228.041C270.321 228.04 261.694 227.059 253.259 225.116C248.922 224.11 244.647 222.85 240.458 221.341H240.458L240.283 221.282C234.9 219.33 229.673 216.976 224.645 214.239C223.353 213.544 222.047 212.799 220.768 212.028C219.887 211.507 219.02 210.973 218.152 210.428C201.397 199.842 187.691 185.07 178.386 167.571C169.081 150.072 164.499 130.449 165.092 110.638C165.684 90.828 171.431 71.5142 181.765 54.6023C192.099 37.6904 206.664 23.7647 224.022 14.1989C241.38 4.63304 260.932 -0.242435 280.749 0.0533827C300.566 0.349201 319.964 5.8061 337.028 15.8858C354.093 25.9655 368.235 40.3197 378.06 57.5325C387.885 74.7453 393.053 94.222 393.054 114.041V114.04C393.001 133.6 387.942 152.82 378.358 169.87C368.774 186.92 354.985 201.233 338.303 211.446C336.345 212.64 334.326 213.784 332.131 214.945C329.147 216.525 326.098 217.962 323.059 219.224L322.496 219.465C321.444 219.9 320.393 220.315 319.332 220.708C318.849 220.896 318.341 221.088 317.833 221.272C305.408 225.757 292.298 228.048 279.088 228.041C279.051 228.04 279.014 228.041 278.976 228.041ZM240.807 219.344L240.974 219.401C245.14 220.909 249.393 222.167 253.709 223.166C261.996 225.076 270.473 226.04 278.977 226.041C279.014 226.041 279.05 226.042 279.087 226.041C292.066 226.048 304.947 223.797 317.155 219.391C317.646 219.213 318.139 219.027 318.622 218.838C319.463 218.526 320.29 218.204 321.114 217.87V217.869L321.736 217.606C324.901 216.314 328.083 214.824 331.196 213.177C333.354 212.035 335.339 210.91 337.263 209.738C353.652 199.705 367.199 185.643 376.615 168.892C386.031 152.141 391.002 133.258 391.054 114.042V114.041C391.053 94.5698 385.976 75.4349 376.323 58.5241C366.671 41.6134 352.777 27.511 336.012 17.6081C319.247 7.70522 300.189 2.34396 280.72 2.05315C261.251 1.76235 242.042 6.55206 224.988 15.9498C207.935 25.3476 193.626 39.0287 183.473 55.6436C173.32 72.2585 167.673 91.2333 167.091 110.696C166.508 130.159 171.009 149.437 180.151 166.63C189.292 183.822 202.757 198.335 219.218 208.736C220.068 209.27 220.92 209.794 221.793 210.311C223.052 211.07 224.329 211.798 225.597 212.48C230.489 215.143 235.573 217.438 240.807 219.344V219.344Z" fill="#E6E6E6"/>
<path id="Vector_24" d="M348.275 42.8765C357.023 42.8765 364.114 35.7853 364.114 27.0379C364.114 18.2906 357.023 11.1994 348.275 11.1994C339.528 11.1994 332.437 18.2906 332.437 27.0379C332.437 35.7853 339.528 42.8765 348.275 42.8765Z" fill="#CCCCCC"/>
<path id="Vector_25" d="M280.265 174.376C309.823 174.376 333.784 150.414 333.784 120.857C333.784 91.2987 309.823 67.3374 280.265 67.3374C250.707 67.3374 226.746 91.2987 226.746 120.857C226.746 150.414 250.707 174.376 280.265 174.376Z" fill="#CCCCCC"/>
<path id="Vector_26" d="M318.091 140.649L318.035 138.649C321.756 138.545 325.036 138.312 327.501 136.511C328.2 135.972 328.774 135.288 329.185 134.506C329.596 133.725 329.834 132.864 329.882 131.983C329.925 131.444 329.844 130.903 329.644 130.401C329.444 129.899 329.131 129.45 328.729 129.088C327.094 127.705 324.461 128.153 322.541 129.034L320.887 129.792L324.06 106.602L326.041 106.873L323.342 126.6C325.95 125.833 328.366 126.162 330.02 127.561C330.656 128.116 331.154 128.81 331.477 129.589C331.8 130.368 331.938 131.212 331.881 132.053C331.822 133.238 331.506 134.395 330.953 135.444C330.4 136.493 329.624 137.409 328.68 138.126C325.514 140.441 321.398 140.556 318.091 140.649Z" fill="#2F2E41"/>
<path id="Vector_27" d="M312.612 108.575H301.841V110.575H312.612V108.575Z" fill="#2F2E41"/>
<path id="Vector_28" d="M311.9 64.1836C309.901 52.2678 302.353 42.0244 292.641 35.1094C283.121 28.4504 271.739 24.9706 260.122 25.1674C237.629 25.4149 215.636 38.0131 203.576 56.9174C190.216 77.8608 189.952 105.21 198.984 127.854C201.293 133.687 204.22 139.256 207.716 144.465C211.593 150.21 216.29 155.278 220.858 160.466C229.371 170.136 239.132 183.583 233.427 197.075C231.32 202.058 226.875 206.589 221.218 206.946C216.442 207.247 211.148 204.964 209.031 200.475C206.658 195.446 209.943 189.494 214.795 187.436C219.884 185.277 225.173 188.462 227.053 193.36C227.987 195.615 228.019 198.143 227.142 200.421C226.955 200.768 226.906 201.172 227.006 201.553C227.106 201.934 227.347 202.263 227.68 202.473C228.024 202.672 228.433 202.727 228.817 202.626C229.201 202.525 229.53 202.277 229.732 201.935C230.742 199.411 230.961 196.64 230.361 193.988C229.76 191.337 228.369 188.93 226.37 187.087C224.342 185.144 221.69 183.983 218.887 183.809C216.083 183.636 213.309 184.462 211.057 186.14C206.301 189.614 203.786 195.832 206.196 201.443C208.283 206.301 213.332 209.235 218.431 209.854C221.244 210.131 224.081 209.676 226.665 208.531C229.249 207.387 231.493 205.593 233.179 203.324C236.94 198.4 238.644 192.209 237.933 186.054C236.263 170.7 223.997 160.203 214.788 148.967C206.6 138.898 200.829 127.086 197.919 114.438C194.942 102.007 195.053 89.0359 198.243 76.6573C201.336 64.9204 207.694 54.3011 216.579 46.0316C225.106 38.1289 235.521 32.5488 246.824 29.826C257.999 27.044 269.758 27.7596 280.514 31.8762C291.787 36.3483 301.791 45.1972 306.559 56.4648C307.705 59.1983 308.526 62.0565 309.007 64.9811C309.326 66.8809 312.217 66.0752 311.9 64.1836H311.9Z" fill="#2F2E41"/>
<path id="Vector_29" d="M311.835 64.6354C316.843 59.8097 325.008 59.1139 331.043 62.3826C337.286 65.7636 339.791 73.0453 338.19 79.7835C337.368 83.5473 335.193 86.8785 332.078 89.1454C330.505 90.2408 332.003 92.8425 333.592 91.7359C340.345 87.0352 343.188 77.9764 340.884 70.1401C338.477 61.9581 330.486 57.0735 322.139 57.3994C317.51 57.5222 313.088 59.3425 309.713 62.5141C308.32 63.8561 310.443 65.9759 311.835 64.6354Z" fill="#2F2E41"/>
</g>
<g id="friend1">
<path id="Vector_30" d="M113.976 458.041C105.321 458.04 96.6936 457.059 88.2592 455.116C83.9218 454.11 79.6474 452.85 75.4585 451.341H75.458L75.2827 451.282C69.9004 449.331 64.673 446.976 59.645 444.239C58.353 443.544 57.0468 442.799 55.7675 442.028C54.8872 441.507 54.0195 440.973 53.1518 440.428C36.3966 429.842 22.6906 415.07 13.3858 397.571C4.08104 380.072 -0.501057 360.449 0.0915405 340.638C0.684138 320.828 6.43094 301.514 16.7651 284.602C27.0992 267.69 41.6636 253.765 59.0217 244.199C76.3797 234.633 95.9316 229.758 115.749 230.053C135.566 230.349 154.964 235.806 172.028 245.886C189.093 255.965 203.235 270.32 213.06 287.532C222.885 304.745 228.053 324.222 228.054 344.041V344.04C228.001 363.6 222.942 382.82 213.358 399.87C203.774 416.92 189.985 431.233 173.303 441.446C171.345 442.64 169.326 443.784 167.131 444.945C164.147 446.525 161.098 447.962 158.059 449.224L157.496 449.465C156.444 449.9 155.393 450.315 154.332 450.708C153.849 450.896 153.341 451.088 152.833 451.272C140.408 455.757 127.298 458.048 114.088 458.041C114.051 458.042 114.014 458.041 113.976 458.041ZM75.8071 449.344L75.9741 449.401C80.1402 450.909 84.3929 452.167 88.7094 453.166C96.9963 455.076 105.473 456.04 113.977 456.041C114.013 456.043 114.048 456.042 114.087 456.041C127.066 456.048 139.947 453.797 152.155 449.391C152.646 449.213 153.139 449.027 153.622 448.838C154.463 448.526 155.29 448.204 156.114 447.87V447.869L156.736 447.606C159.901 446.314 163.083 444.824 166.196 443.177C168.354 442.035 170.339 440.91 172.263 439.738C188.652 429.705 202.199 415.643 211.615 398.892C221.031 382.141 226.002 363.258 226.054 344.042V344.041C226.053 324.57 220.976 305.435 211.323 288.524C201.671 271.613 187.777 257.511 171.012 247.608C154.247 237.705 135.189 232.344 115.72 232.053C96.2506 231.762 77.0418 236.552 59.9883 245.95C42.9348 255.348 28.6257 269.029 18.4727 285.644C8.31965 302.259 2.67336 321.233 2.09079 340.696C1.50823 360.159 6.0095 379.437 15.1506 396.63C24.2917 413.822 37.7568 428.335 54.2177 438.736C55.0683 439.27 55.9204 439.794 56.7929 440.311C58.0517 441.07 59.3291 441.798 60.5971 442.48C65.4891 445.143 70.5732 447.438 75.8071 449.344V449.344Z" fill="#E6E6E6"/>
<path id="Vector_31" d="M176.275 263.876C185.023 263.876 192.114 256.785 192.114 248.038C192.114 239.291 185.023 232.199 176.275 232.199C167.528 232.199 160.437 239.291 160.437 248.038C160.437 256.785 167.528 263.876 176.275 263.876Z" fill="#CCCCCC"/>
<path id="Vector_32" d="M112.266 405.924C141.824 405.924 165.785 381.962 165.785 352.405C165.785 322.847 141.824 298.885 112.266 298.885C82.7079 298.885 58.7465 322.847 58.7465 352.405C58.7465 381.962 82.7079 405.924 112.266 405.924Z" fill="#6C63FF"/>
<path id="Vector_33" d="M109.981 370.274L109.925 368.274C113.646 368.17 116.926 367.937 119.391 366.136C120.09 365.596 120.664 364.913 121.075 364.131C121.486 363.35 121.724 362.489 121.772 361.608C121.816 361.069 121.734 360.528 121.534 360.026C121.334 359.524 121.021 359.075 120.62 358.713C118.983 357.331 116.351 357.779 114.432 358.658L112.777 359.417L115.95 336.227L117.932 336.498L115.232 356.225C117.84 355.458 120.256 355.788 121.911 357.186C122.546 357.741 123.044 358.435 123.367 359.214C123.69 359.993 123.828 360.836 123.771 361.678C123.713 362.862 123.396 364.02 122.843 365.069C122.29 366.118 121.515 367.033 120.571 367.751C117.404 370.066 113.288 370.181 109.981 370.274Z" fill="#2F2E41"/>
<path id="Vector_34" d="M138.502 338.199H127.731V340.199H138.502V338.199Z" fill="#2F2E41"/>
<path id="Vector_35" d="M104.502 338.199H93.7309V340.199H104.502V338.199Z" fill="#2F2E41"/>
<path id="Vector_36" d="M125.895 318.592C132.35 317.992 137.754 313.717 140.62 307.997C142.084 305.036 142.852 301.78 142.865 298.477C142.879 295.174 142.139 291.912 140.7 288.939C137.658 282.705 132.583 277.694 126.311 274.732C119.016 271.198 110.777 270.22 102.753 270.544C87.6312 271.155 70.9715 275.4 61.6759 288.294C57.3031 294.141 55.4028 301.472 56.3846 308.707C57.5608 316.3 62.1822 322.876 67.1164 328.544C72.2879 334.485 78.2555 339.835 82.3427 346.641C85.8793 352.529 87.7817 359.945 85.4159 366.627C84.8519 368.211 84.0146 369.684 82.9419 370.978C81.7187 372.454 83.8297 374.588 85.0632 373.1C89.3191 367.964 90.1795 361.184 88.8393 354.794C87.3639 347.759 83.1076 341.811 78.4535 336.498C69.3975 326.159 55.9104 314.87 59.7168 299.425C61.504 292.73 65.571 286.869 71.2166 282.852C77.2697 278.463 84.4568 276.048 91.76 274.737C105.735 272.228 122.659 272.49 133.218 283.379C137.606 287.904 140.624 294.228 139.816 300.645C139.087 306.432 135.392 312.108 129.99 314.522C128.692 315.099 127.309 315.46 125.895 315.592C123.989 315.769 123.97 318.771 125.895 318.592H125.895Z" fill="#2F2E41"/>
</g>
</g>
<defs>
<clipPath id="clip0">
<rect width="913.307" height="595.513" fill="white"/>
</clipPath>
</defs>
</svg>
